<?xml version="1.0" encoding="UTF-8" standalone="no"?><!DOCTYPE svg PUBLIC "-//W3C//DTD SVG 1.1//EN" "http://www.w3.org/Graphics/SVG/1.1/DTD/svg11.dtd"><svg width="100%" height="100%" viewBox="0 0 405 405" version="1.1" xmlns="http://www.w3.org/2000/svg" xmlns:xlink="http://www.w3.org/1999/xlink" xml:space="preserve" xmlns:serif="http://www.serif.com/" style="fill-rule:evenodd;clip-rule:evenodd;stroke-miterlimit:22.926;"><g><rect x="45.335" y="357.843" width="313.626" height="20.909" style="fill:#fff;"/><rect x="45.332" y="357.816" width="313.623" height="20.909" style="fill:none;stroke:#9c9b9b;stroke-width:0.99px;"/><path d="M45.315,358.919l313.62,-0" style="fill:none;fill-rule:nonzero;stroke:#9c9b9b;stroke-width:3.95px;"/><rect x="45.335" y="336.94" width="313.626" height="20.899" style="fill:#fff;"/><rect x="45.332" y="336.914" width="313.623" height="20.902" style="fill:none;stroke:#9c9b9b;stroke-width:0.99px;"/><path d="M45.315,338.013l313.62,0" style="fill:none;fill-rule:nonzero;stroke:#9c9b9b;stroke-width:3.95px;"/><rect x="45.335" y="316.035" width="313.626" height="20.909" style="fill:#fff;"/><rect x="45.332" y="316.008" width="313.623" height="20.906" style="fill:none;stroke:#9c9b9b;stroke-width:0.99px;"/><path d="M45.315,317.107l313.62,0" style="fill:none;fill-rule:nonzero;stroke:#9c9b9b;stroke-width:3.95px;"/><rect x="45.335" y="295.126" width="313.626" height="20.906" style="fill:#fff;"/><rect x="45.332" y="295.096" width="313.623" height="20.909" style="fill:none;stroke:#9c9b9b;stroke-width:0.99px;"/><path d="M45.315,296.195l313.62,-0" style="fill:none;fill-rule:nonzero;stroke:#9c9b9b;stroke-width:3.95px;"/><rect x="45.335" y="274.22" width="313.626" height="20.906" style="fill:#fff;"/><rect x="45.332" y="274.19" width="313.623" height="20.906" style="fill:none;stroke:#9c9b9b;stroke-width:0.99px;"/><path d="M45.315,275.289l313.62,0" style="fill:none;fill-rule:nonzero;stroke:#9c9b9b;stroke-width:3.95px;"/><rect x="45.335" y="252.47" width="313.626" height="20.906" style="fill:#fff;"/><rect x="45.335" y="230.72" width="313.626" height="20.906" style="fill:#fff;"/><path d="M45.315,253.539l313.62,0" style="fill:none;fill-rule:nonzero;stroke:#9c9b9b;stroke-width:3.95px;"/><path d="M45.315,233.471l313.62,-0" style="fill:none;fill-rule:nonzero;stroke:#9c9b9b;stroke-width:3.95px;"/><rect x="45.335" y="211.496" width="313.626" height="20.912" style="fill:#fff;"/><rect x="45.332" y="211.463" width="313.623" height="63.417" style="fill:none;stroke:#9c9b9b;stroke-width:0.9px;"/><path d="M45.315,212.565l313.62,0" style="fill:none;fill-rule:nonzero;stroke:#9c9b9b;stroke-width:3.95px;"/><rect x="45.424" y="210.629" width="313.626" height="4.929" style="fill:#fff;"/><rect x="45.424" y="210.595" width="313.626" height="4.929" style="fill:none;stroke:#808080;stroke-width:0.99px;"/></g></svg>