<?xml version="1.0" encoding="UTF-8" standalone="no"?><!DOCTYPE svg PUBLIC "-//W3C//DTD SVG 1.1//EN" "http://www.w3.org/Graphics/SVG/1.1/DTD/svg11.dtd"><svg width="100%" height="100%" viewBox="0 0 405 405" version="1.1" xmlns="http://www.w3.org/2000/svg" xmlns:xlink="http://www.w3.org/1999/xlink" xml:space="preserve" xmlns:serif="http://www.serif.com/" style="fill-rule:evenodd;clip-rule:evenodd;stroke-miterlimit:22.926;"><g><rect x="45.335" y="357.852" width="313.626" height="20.906" style="fill:#fff;"/><rect x="45.332" y="357.829" width="313.623" height="20.909" style="fill:none;stroke:#9c9b9b;stroke-width:0.99px;"/><path d="M45.315,358.928l313.62,0" style="fill:none;fill-rule:nonzero;stroke:#9c9b9b;stroke-width:3.95px;"/><rect x="45.335" y="336.95" width="313.626" height="20.906" style="fill:#fff;"/><rect x="45.332" y="336.93" width="313.623" height="20.902" style="fill:none;stroke:#9c9b9b;stroke-width:0.99px;"/><path d="M45.315,338.022l313.62,0" style="fill:none;fill-rule:nonzero;stroke:#9c9b9b;stroke-width:3.95px;"/><rect x="45.335" y="316.041" width="313.626" height="20.906" style="fill:#fff;"/><rect x="45.332" y="316.018" width="313.623" height="20.909" style="fill:none;stroke:#9c9b9b;stroke-width:0.99px;"/><path d="M45.315,317.117l313.62,-0" style="fill:none;fill-rule:nonzero;stroke:#9c9b9b;stroke-width:3.95px;"/><rect x="45.335" y="295.132" width="313.626" height="20.909" style="fill:#fff;"/><rect x="45.332" y="295.108" width="313.623" height="20.909" style="fill:none;stroke:#9c9b9b;stroke-width:0.99px;"/><path d="M45.315,296.208l313.62,-0" style="fill:none;fill-rule:nonzero;stroke:#9c9b9b;stroke-width:3.95px;"/><rect x="45.335" y="274.229" width="313.626" height="20.899" style="fill:#fff;"/><rect x="45.332" y="274.206" width="313.623" height="20.899" style="fill:none;stroke:#9c9b9b;stroke-width:0.99px;"/><path d="M45.315,275.298l313.62,0" style="fill:none;fill-rule:nonzero;stroke:#9c9b9b;stroke-width:3.95px;"/><rect x="45.335" y="253.317" width="313.626" height="20.912" style="fill:#fff;"/><rect x="45.332" y="253.29" width="313.623" height="20.912" style="fill:none;stroke:#9c9b9b;stroke-width:0.99px;"/><path d="M45.315,254.389l313.62,0" style="fill:none;fill-rule:nonzero;stroke:#9c9b9b;stroke-width:3.95px;"/><rect x="45.335" y="232.408" width="313.626" height="20.909" style="fill:#fff;"/><rect x="45.332" y="232.385" width="313.623" height="20.909" style="fill:none;stroke:#9c9b9b;stroke-width:0.99px;"/><path d="M45.315,233.49l313.62,0" style="fill:none;fill-rule:nonzero;stroke:#9c9b9b;stroke-width:3.95px;"/><rect x="45.335" y="211.502" width="313.626" height="20.902" style="fill:#fff;"/><rect x="45.332" y="211.472" width="313.623" height="20.906" style="fill:none;stroke:#9c9b9b;stroke-width:0.99px;"/><path d="M45.315,212.581l313.62,0" style="fill:none;fill-rule:nonzero;stroke:#9c9b9b;stroke-width:3.95px;"/><rect x="45.335" y="190.593" width="313.626" height="20.909" style="fill:#fff;"/><rect x="45.332" y="190.566" width="313.623" height="20.909" style="fill:none;stroke:#9c9b9b;stroke-width:0.99px;"/><path d="M45.315,191.669l313.62,-0" style="fill:none;fill-rule:nonzero;stroke:#9c9b9b;stroke-width:3.95px;"/><rect x="45.335" y="169.69" width="313.626" height="20.899" style="fill:#fff;"/><rect x="45.332" y="169.664" width="313.623" height="20.902" style="fill:none;stroke:#9c9b9b;stroke-width:0.99px;"/><path d="M45.315,170.763l313.62,0" style="fill:none;fill-rule:nonzero;stroke:#9c9b9b;stroke-width:3.95px;"/><rect x="45.335" y="148.785" width="313.626" height="20.909" style="fill:#fff;"/><rect x="45.332" y="148.758" width="313.623" height="20.906" style="fill:none;stroke:#9c9b9b;stroke-width:0.99px;"/><path d="M45.315,149.857l313.62,0" style="fill:none;fill-rule:nonzero;stroke:#9c9b9b;stroke-width:3.95px;"/><rect x="45.335" y="127.876" width="313.626" height="20.906" style="fill:#fff;"/><rect x="45.332" y="127.846" width="313.623" height="20.909" style="fill:none;stroke:#9c9b9b;stroke-width:0.99px;"/><path d="M45.315,128.945l313.62,-0" style="fill:none;fill-rule:nonzero;stroke:#9c9b9b;stroke-width:3.95px;"/><rect x="45.335" y="106.97" width="313.626" height="20.906" style="fill:#fff;"/><rect x="45.332" y="106.94" width="313.623" height="20.906" style="fill:none;stroke:#9c9b9b;stroke-width:0.99px;"/><path d="M45.315,108.039l313.62,0" style="fill:none;fill-rule:nonzero;stroke:#9c9b9b;stroke-width:3.95px;"/><path d="M45.315,66.221l313.62,-0" style="fill:none;fill-rule:nonzero;stroke:#9c9b9b;stroke-width:3.95px;"/><rect x="45.335" y="44.246" width="313.626" height="20.912" style="fill:#fff;"/><rect x="45.332" y="44.213" width="313.623" height="20.912" style="fill:none;stroke:#9c9b9b;stroke-width:0.99px;"/><path d="M45.315,45.315l313.62,0" style="fill:none;fill-rule:nonzero;stroke:#9c9b9b;stroke-width:3.95px;"/><rect x="45.424" y="43.379" width="313.626" height="4.929" style="fill:#fff;"/><rect x="45.424" y="43.345" width="313.626" height="4.929" style="fill:none;stroke:#808080;stroke-width:0.99px;"/></g><g><g><path d="M45.513,72.847l312.808,0" style="fill:none;fill-rule:nonzero;stroke:#f20d0d;stroke-width:0.62px;stroke-linecap:round;stroke-linejoin:round;stroke-miterlimit:4;"/><path d="M45.513,76.365l312.808,0" style="fill:none;fill-rule:nonzero;stroke:#f20d0d;stroke-width:0.62px;stroke-linecap:round;stroke-linejoin:round;stroke-miterlimit:4;"/><path d="M45.513,80.444l312.808,0" style="fill:none;fill-rule:nonzero;stroke:#f20d0d;stroke-width:0.62px;stroke-linecap:round;stroke-linejoin:round;stroke-miterlimit:4;"/><path d="M45.513,83.962l312.808,0" style="fill:none;fill-rule:nonzero;stroke:#f20d0d;stroke-width:0.62px;stroke-linecap:round;stroke-linejoin:round;stroke-miterlimit:4;"/><path d="M45.513,88.078l312.808,0" style="fill:none;fill-rule:nonzero;stroke:#f20d0d;stroke-width:0.62px;stroke-linecap:round;stroke-linejoin:round;stroke-miterlimit:4;"/><path d="M45.513,91.596l312.808,0" style="fill:none;fill-rule:nonzero;stroke:#f20d0d;stroke-width:0.62px;stroke-linecap:round;stroke-linejoin:round;stroke-miterlimit:4;"/><path d="M45.513,95.675l312.808,-0" style="fill:none;fill-rule:nonzero;stroke:#f20d0d;stroke-width:0.62px;stroke-linecap:round;stroke-linejoin:round;stroke-miterlimit:4;"/><path d="M45.513,99.193l312.808,-0" style="fill:none;fill-rule:nonzero;stroke:#f20d0d;stroke-width:0.62px;stroke-linecap:round;stroke-linejoin:round;stroke-miterlimit:4;"/></g><path d="M358.682,76.283l-0,-3.475l-313.147,0l-0,3.475l313.147,0Z" style="fill:#f20d0d;"/><path d="M358.682,83.756l-0,-3.476l-313.147,0l-0,3.476l313.147,-0Z" style="fill:#f20d0d;"/><path d="M358.682,91.85l-0,-3.475l-313.147,0l-0,3.475l313.147,0Z" style="fill:#f20d0d;"/><path d="M358.682,99.323l-0,-3.476l-313.147,0l-0,3.476l313.147,-0Z" style="fill:#f20d0d;"/><rect x="147.849" y="66.166" width="3.475" height="40.503" style="fill:#f20d0d;stroke:#f20d0d;stroke-width:0.62px;stroke-linecap:round;stroke-linejoin:round;stroke-miterlimit:4;"/><rect x="252.621" y="66.166" width="3.476" height="40.503" style="fill:#f20d0d;stroke:#f20d0d;stroke-width:0.62px;stroke-linecap:round;stroke-linejoin:round;stroke-miterlimit:4;"/></g></svg>