<?xml version="1.0" encoding="UTF-8" standalone="no"?>
<!DOCTYPE svg PUBLIC "-//W3C//DTD SVG 1.1//EN" "http://www.w3.org/Graphics/SVG/1.1/DTD/svg11.dtd">
<svg width="100%" height="100%" viewBox="0 0 539 539" version="1.1" xmlns="http://www.w3.org/2000/svg" xmlns:xlink="http://www.w3.org/1999/xlink" xml:space="preserve" xmlns:serif="http://www.serif.com/" style="fill-rule:evenodd;clip-rule:evenodd;stroke-linecap:round;stroke-linejoin:round;stroke-miterlimit:1.5;">
    <rect x="13.506" y="22.567" width="511.54" height="496.598" style="fill:white;stroke:black;stroke-width:3px;"/>
    <rect x="13.489" y="510.698" width="511.269" height="9.111" style="fill:rgb(153,153,153);stroke:black;stroke-width:3px;"/>
    <rect x="13.489" y="22.698" width="511.269" height="9.111" style="fill:rgb(153,153,153);stroke:black;stroke-width:3px;"/>
    <path d="M15.437,447.554L524.41,447.554" style="fill:none;stroke:black;stroke-width:3px;"/>
    <path d="M15.437,387.554L524.41,387.554" style="fill:none;stroke:black;stroke-width:3px;"/>
    <path d="M15.437,327.554L524.41,327.554" style="fill:none;stroke:black;stroke-width:3px;"/>
    <path d="M15.437,267.554L524.41,267.554" style="fill:none;stroke:black;stroke-width:3px;"/>
    <path d="M15.437,207.554L524.41,207.554" style="fill:none;stroke:black;stroke-width:3px;"/>
    <g transform="matrix(1,0,0,1.0686,0,-5.95022)">
        <rect x="14.202" y="86.738" width="510.027" height="5.325" style="fill:rgb(204,0,0);"/>
        <rect x="14.202" y="86.738" width="3.772" height="66.075" style="fill:rgb(204,0,0);"/>
        <rect x="520.202" y="86.738" width="3.772" height="66.075" style="fill:rgb(204,0,0);"/>
        <rect x="14.202" y="149.738" width="510.027" height="5.325" style="fill:rgb(204,0,0);"/>
    </g>
    <g transform="matrix(1.7054,0,0,1.13666,-38.078,-15.188)">
        <rect x="32.395" y="94.315" width="295.295" height="55.838" style="fill:rgb(242,13,13);fill-opacity:0.4;"/>
    </g>
</svg>
