<?xml version="1.0" encoding="UTF-8" standalone="no"?>
<!DOCTYPE svg PUBLIC "-//W3C//DTD SVG 1.1//EN" "http://www.w3.org/Graphics/SVG/1.1/DTD/svg11.dtd">
<svg width="100%" height="100%" viewBox="0 0 539 539" version="1.1" xmlns="http://www.w3.org/2000/svg" xmlns:xlink="http://www.w3.org/1999/xlink" xml:space="preserve" xmlns:serif="http://www.serif.com/" style="fill-rule:evenodd;clip-rule:evenodd;stroke-linecap:round;stroke-linejoin:round;stroke-miterlimit:1.5;">
    <rect x="13.506" y="22.567" width="511.54" height="496.598" style="fill:white;stroke:black;stroke-width:3px;"/>
    <rect x="13.489" y="510.698" width="511.269" height="9.111" style="fill:rgb(153,153,153);stroke:black;stroke-width:3px;"/>
    <rect x="13.489" y="22.698" width="511.269" height="9.111" style="fill:rgb(153,153,153);stroke:black;stroke-width:3px;"/>
    <path d="M15.437,447.554L524.41,447.554" style="fill:none;stroke:black;stroke-width:3px;"/>
    <path d="M15.437,387.554L524.41,387.554" style="fill:none;stroke:black;stroke-width:3px;"/>
    <path d="M15.437,327.554L524.41,327.554" style="fill:none;stroke:black;stroke-width:3px;"/>
    <path d="M15.437,267.554L524.41,267.554" style="fill:none;stroke:black;stroke-width:3px;"/>
    <path d="M15.437,207.554L524.41,207.554" style="fill:none;stroke:black;stroke-width:3px;"/>
    <g transform="matrix(1,0,0,1.0686,0,-5.95022)">
        <g>
            <path d="M416,144L416,150L413,150L413,144L406,144L406,150L403,150L403,144L396,144L396,150L393,150L393,144L386,144L386,150L383,150L383,144L376,144L376,150L373,150L373,144L366,144L366,150L363,150L363,144L356,144L356,150L353,150L353,144L346,144L346,150L343,150L343,144L336,144L336,150L333,150L333,144L326,144L326,150L323,150L323,144L316,144L316,150L313,150L313,144L306,144L306,150L303,150L303,144L296,144L296,150L293,150L293,144L286,144L286,150L283,150L283,144L276,144L276,150L273,150L273,144L266,144L266,150L263,150L263,144L256,144L256,150L253,150L253,144L246,144L246,150L243,150L243,144L236,144L236,150L233,150L233,144L226,144L226,150L223,150L223,144L216,144L216,150L213,150L213,144L206,144L206,150L203,150L203,144L196,144L196,150L193,150L193,144L186,144L186,150L183,150L183,144L176,144L176,150L173,150L173,144L166,144L166,150L163,150L163,144L156,144L156,150L153,150L153,144L146,144L146,150L143,150L143,144L136,144L136,150L133,150L133,144L126,144L126,150L123,150L123,144L116,144L116,150L113,150L113,144L106,144L106,150L103,150L103,144L96,144L96,150L93,150L93,144L86,144L86,150L83,150L83,144L76,144L76,150L73,150L73,144L66,144L66,150L63,150L63,144L56,144L56,150L53,150L53,144L46,144L46,150L43,150L43,144L36,144L36,150L33,150L33,144L26,144L26,150L23,150L23,144L16,144L16,140L23,140L23,135L16,135L16,131L23,131L23,127L16,127L16,123L23,123L23,118L16,118L16,114L23,114L23,109L16,109L16,105L23,105L23,100L16,100L16,96L23,96L23,91L26,91L26,96L33,96L33,91L36,91L36,96L43,96L43,91L46,91L46,96L53,96L53,91L56,91L56,96L63,96L63,91L66,91L66,96L73,96L73,91L76,91L76,96L83,96L83,91L86,91L86,96L93,96L93,91L96,91L96,96L103,96L103,91L106,91L106,96L113,96L113,91L116,91L116,96L123,96L123,91L126,91L126,96L133,96L133,91L136,91L136,96L143,96L143,91L146,91L146,96L153,96L153,91L156,91L156,96L163,96L163,91L166,91L166,96L173,96L173,91L176,91L176,96L183,96L183,91L186,91L186,96L193,96L193,91L196,91L196,96L203,96L203,91L206,91L206,96L213,96L213,91L216,91L216,96L223,96L223,91L226,91L226,96L233,96L233,91L236,91L236,96L243,96L243,91L246,91L246,96L253,96L253,91L256,91L256,96L263,96L263,91L266,91L266,96L273,96L273,91L276,91L276,96L283,96L283,91L286,91L286,96L293,96L293,91L296,91L296,96L303,96L303,91L306,91L306,96L313,96L313,91L316,91L316,96L323,96L323,91L326,91L326,96L333,96L333,91L336,91L336,96L343,96L343,91L346,91L346,96L353,96L353,91L356,91L356,96L363,96L363,91L366,91L366,96L373,96L373,91L376,91L376,96L383,96L383,91L386,91L386,96L393,96L393,91L396,91L396,96L403,96L403,91L406,91L406,96L413,96L413,91L416,91L416,96L423,96L423,91L426,91L426,96L433,96L433,91L436,91L436,96L443,96L443,91L446,91L446,96L453,96L453,91L456,91L456,96L463,96L463,91L466,91L466,96L473,96L473,91L476,91L476,96L483,96L483,91L486,91L486,96L493,96L493,91L496,91L496,96L503,96L503,91L506,91L506,96L513,96L513,91L516,91L516,96L524,96L524,100L516,100L516,105L524,105L524,109L516,109L516,114L524,114L524,118L516,118L516,123L524,123L524,127L516,127L516,131L524,131L524,135L516,135L516,140L524,140L524,144L516,144L516,150L513,150L513,144L506,144L506,150L503,150L503,144L496,144L496,150L493,150L493,144L486,144L486,150L483,150L483,144L476,144L476,150L473,150L473,144L466,144L466,150L463,150L463,144L456,144L456,150L453,150L453,144L446,144L446,150L443,150L443,144L436,144L436,150L433,150L433,144L426,144L426,150L423,150L423,144L416,144ZM33,140L33,135L26,135L26,140L33,140ZM43,140L43,135L36,135L36,140L43,140ZM53,140L53,135L46,135L46,140L53,140ZM63,140L63,135L56,135L56,140L63,140ZM73,140L73,135L66,135L66,140L73,140ZM83,140L83,135L76,135L76,140L83,140ZM93,140L93,135L86,135L86,140L93,140ZM103,140L103,135L96,135L96,140L103,140ZM113,140L113,135L106,135L106,140L113,140ZM123,140L123,135L116,135L116,140L123,140ZM133,140L133,135L126,135L126,140L133,140ZM143,140L143,135L136,135L136,140L143,140ZM153,140L153,135L146,135L146,140L153,140ZM163,140L163,135L156,135L156,140L163,140ZM173,140L173,135L166,135L166,140L173,140ZM183,140L183,135L176,135L176,140L183,140ZM193,140L193,135L186,135L186,140L193,140ZM203,140L203,135L196,135L196,140L203,140ZM213,140L213,135L206,135L206,140L213,140ZM223,140L223,135L216,135L216,140L223,140ZM233,140L233,135L226,135L226,140L233,140ZM243,140L243,135L236,135L236,140L243,140ZM253,140L253,135L246,135L246,140L253,140ZM263,140L263,135L256,135L256,140L263,140ZM273,140L273,135L266,135L266,140L273,140ZM283,140L283,135L276,135L276,140L283,140ZM293,140L293,135L286,135L286,140L293,140ZM303,140L303,135L296,135L296,140L303,140ZM313,140L313,135L306,135L306,140L313,140ZM323,140L323,135L316,135L316,140L323,140ZM333,140L333,135L326,135L326,140L333,140ZM343,140L343,135L336,135L336,140L343,140ZM353,140L353,135L346,135L346,140L353,140ZM363,140L363,135L356,135L356,140L363,140ZM373,140L373,135L366,135L366,140L373,140ZM383,140L383,135L376,135L376,140L383,140ZM393,140L393,135L386,135L386,140L393,140ZM403,140L403,135L396,135L396,140L403,140ZM413,140L413,135L406,135L406,140L413,140ZM416,140L423,140L423,135L416,135L416,140ZM433,140L433,135L426,135L426,140L433,140ZM443,140L443,135L436,135L436,140L443,140ZM453,140L453,135L446,135L446,140L453,140ZM456,140L463,140L463,135L456,135L456,140ZM506,135L506,140L513,140L513,135L506,135ZM496,135L496,140L503,140L503,135L496,135ZM486,135L486,140L493,140L493,135L486,135ZM476,135L476,140L483,140L483,135L476,135ZM466,135L466,140L473,140L473,135L466,135ZM33,131L33,127L26,127L26,131L33,131ZM43,131L43,127L36,127L36,131L43,131ZM53,131L53,127L46,127L46,131L53,131ZM63,131L63,127L56,127L56,131L63,131ZM73,131L73,127L66,127L66,131L73,131ZM83,131L83,127L76,127L76,131L83,131ZM93,131L93,127L86,127L86,131L93,131ZM103,131L103,127L96,127L96,131L103,131ZM113,131L113,127L106,127L106,131L113,131ZM123,131L123,127L116,127L116,131L123,131ZM133,131L133,127L126,127L126,131L133,131ZM143,131L143,127L136,127L136,131L143,131ZM153,131L153,127L146,127L146,131L153,131ZM163,131L163,127L156,127L156,131L163,131ZM173,131L173,127L166,127L166,131L173,131ZM183,131L183,127L176,127L176,131L183,131ZM193,131L193,127L186,127L186,131L193,131ZM203,131L203,127L196,127L196,131L203,131ZM213,131L213,127L206,127L206,131L213,131ZM223,131L223,127L216,127L216,131L223,131ZM233,131L233,127L226,127L226,131L233,131ZM243,131L243,127L236,127L236,131L243,131ZM253,131L253,127L246,127L246,131L253,131ZM263,131L263,127L256,127L256,131L263,131ZM273,131L273,127L266,127L266,131L273,131ZM283,131L283,127L276,127L276,131L283,131ZM293,131L293,127L286,127L286,131L293,131ZM303,131L303,127L296,127L296,131L303,131ZM313,131L313,127L306,127L306,131L313,131ZM323,131L323,127L316,127L316,131L323,131ZM333,131L333,127L326,127L326,131L333,131ZM343,131L343,127L336,127L336,131L343,131ZM353,131L353,127L346,127L346,131L353,131ZM363,131L363,127L356,127L356,131L363,131ZM373,131L373,127L366,127L366,131L373,131ZM383,131L383,127L376,127L376,131L383,131ZM393,131L393,127L386,127L386,131L393,131ZM403,131L403,127L396,127L396,131L403,131ZM413,131L413,127L406,127L406,131L413,131ZM416,131L423,131L423,127L416,127L416,131ZM433,131L433,127L426,127L426,131L433,131ZM506,127L506,131L513,131L513,127L506,127ZM496,127L496,131L503,131L503,127L496,127ZM486,127L486,131L493,131L493,127L486,127ZM476,127L476,131L483,131L483,127L476,127ZM466,127L466,131L473,131L473,127L466,127ZM456,131L463,131L463,127L456,127L456,131ZM453,131L453,127L446,127L446,131L453,131ZM443,131L443,127L436,127L436,131L443,131ZM33,123L33,118L26,118L26,123L33,123ZM43,123L43,118L36,118L36,123L43,123ZM53,123L53,118L46,118L46,123L53,123ZM63,123L63,118L56,118L56,123L63,123ZM73,123L73,118L66,118L66,123L73,123ZM83,123L83,118L76,118L76,123L83,123ZM93,123L93,118L86,118L86,123L93,123ZM103,123L103,118L96,118L96,123L103,123ZM113,123L113,118L106,118L106,123L113,123ZM123,123L123,118L116,118L116,123L123,123ZM133,123L133,118L126,118L126,123L133,123ZM143,123L143,118L136,118L136,123L143,123ZM153,123L153,118L146,118L146,123L153,123ZM163,123L163,118L156,118L156,123L163,123ZM173,123L173,118L166,118L166,123L173,123ZM183,123L183,118L176,118L176,123L183,123ZM193,123L193,118L186,118L186,123L193,123ZM203,123L203,118L196,118L196,123L203,123ZM213,123L213,118L206,118L206,123L213,123ZM223,123L223,118L216,118L216,123L223,123ZM233,123L233,118L226,118L226,123L233,123ZM243,123L243,118L236,118L236,123L243,123ZM253,123L253,118L246,118L246,123L253,123ZM263,123L263,118L256,118L256,123L263,123ZM273,123L273,118L266,118L266,123L273,123ZM283,123L283,118L276,118L276,123L283,123ZM293,123L293,118L286,118L286,123L293,123ZM303,123L303,118L296,118L296,123L303,123ZM313,123L313,118L306,118L306,123L313,123ZM323,123L323,118L316,118L316,123L323,123ZM333,123L333,118L326,118L326,123L333,123ZM343,123L343,118L336,118L336,123L343,123ZM353,123L353,118L346,118L346,123L353,123ZM363,123L363,118L356,118L356,123L363,123ZM373,123L373,118L366,118L366,123L373,123ZM383,123L383,118L376,118L376,123L383,123ZM393,123L393,118L386,118L386,123L393,123ZM403,123L403,118L396,118L396,123L403,123ZM413,123L413,118L406,118L406,123L413,123ZM416,123L423,123L423,118L416,118L416,123ZM506,118L506,123L513,123L513,118L506,118ZM433,123L433,118L426,118L426,123L433,123ZM443,123L443,118L436,118L436,123L443,123ZM453,123L453,118L446,118L446,123L453,123ZM456,123L463,123L463,118L456,118L456,123ZM466,118L466,123L473,123L473,118L466,118ZM476,118L476,123L483,123L483,118L476,118ZM486,118L486,123L493,123L493,118L486,118ZM496,118L496,123L503,123L503,118L496,118ZM33,114L33,109L26,109L26,114L33,114ZM43,114L43,109L36,109L36,114L43,114ZM53,114L53,109L46,109L46,114L53,114ZM63,114L63,109L56,109L56,114L63,114ZM73,114L73,109L66,109L66,114L73,114ZM83,114L83,109L76,109L76,114L83,114ZM93,114L93,109L86,109L86,114L93,114ZM103,114L103,109L96,109L96,114L103,114ZM113,114L113,109L106,109L106,114L113,114ZM123,114L123,109L116,109L116,114L123,114ZM133,114L133,109L126,109L126,114L133,114ZM143,114L143,109L136,109L136,114L143,114ZM153,114L153,109L146,109L146,114L153,114ZM163,114L163,109L156,109L156,114L163,114ZM173,114L173,109L166,109L166,114L173,114ZM183,114L183,109L176,109L176,114L183,114ZM193,114L193,109L186,109L186,114L193,114ZM203,114L203,109L196,109L196,114L203,114ZM213,114L213,109L206,109L206,114L213,114ZM223,114L223,109L216,109L216,114L223,114ZM233,114L233,109L226,109L226,114L233,114ZM243,114L243,109L236,109L236,114L243,114ZM253,114L253,109L246,109L246,114L253,114ZM263,114L263,109L256,109L256,114L263,114ZM273,114L273,109L266,109L266,114L273,114ZM283,114L283,109L276,109L276,114L283,114ZM293,114L293,109L286,109L286,114L293,114ZM303,114L303,109L296,109L296,114L303,114ZM313,114L313,109L306,109L306,114L313,114ZM323,114L323,109L316,109L316,114L323,114ZM333,114L333,109L326,109L326,114L333,114ZM343,114L343,109L336,109L336,114L343,114ZM353,114L353,109L346,109L346,114L353,114ZM363,114L363,109L356,109L356,114L363,114ZM373,114L373,109L366,109L366,114L373,114ZM383,114L383,109L376,109L376,114L383,114ZM393,114L393,109L386,109L386,114L393,114ZM403,114L403,109L396,109L396,114L403,114ZM413,114L413,109L406,109L406,114L413,114ZM416,114L423,114L423,109L416,109L416,114ZM506,109L506,114L513,114L513,109L506,109ZM496,109L496,114L503,114L503,109L496,109ZM486,109L486,114L493,114L493,109L486,109ZM476,109L476,114L483,114L483,109L476,109ZM466,109L466,114L473,114L473,109L466,109ZM456,114L463,114L463,109L456,109L456,114ZM433,114L433,109L426,109L426,114L433,114ZM443,114L443,109L436,109L436,114L443,114ZM453,114L453,109L446,109L446,114L453,114ZM33,105L33,100L26,100L26,105L33,105ZM43,105L43,100L36,100L36,105L43,105ZM53,105L53,100L46,100L46,105L53,105ZM63,105L63,100L56,100L56,105L63,105ZM73,105L73,100L66,100L66,105L73,105ZM83,105L83,100L76,100L76,105L83,105ZM93,105L93,100L86,100L86,105L93,105ZM103,105L103,100L96,100L96,105L103,105ZM113,105L113,100L106,100L106,105L113,105ZM123,105L123,100L116,100L116,105L123,105ZM133,105L133,100L126,100L126,105L133,105ZM143,105L143,100L136,100L136,105L143,105ZM153,105L153,100L146,100L146,105L153,105ZM163,105L163,100L156,100L156,105L163,105ZM173,105L173,100L166,100L166,105L173,105ZM183,105L183,100L176,100L176,105L183,105ZM193,105L193,100L186,100L186,105L193,105ZM203,105L203,100L196,100L196,105L203,105ZM213,105L213,100L206,100L206,105L213,105ZM223,105L223,100L216,100L216,105L223,105ZM233,105L233,100L226,100L226,105L233,105ZM243,105L243,100L236,100L236,105L243,105ZM253,105L253,100L246,100L246,105L253,105ZM263,105L263,100L256,100L256,105L263,105ZM273,105L273,100L266,100L266,105L273,105ZM283,105L283,100L276,100L276,105L283,105ZM293,105L293,100L286,100L286,105L293,105ZM303,105L303,100L296,100L296,105L303,105ZM313,105L313,100L306,100L306,105L313,105ZM323,105L323,100L316,100L316,105L323,105ZM333,105L333,100L326,100L326,105L333,105ZM343,105L343,100L336,100L336,105L343,105ZM353,105L353,100L346,100L346,105L353,105ZM363,105L363,100L356,100L356,105L363,105ZM373,105L373,100L366,100L366,105L373,105ZM383,105L383,100L376,100L376,105L383,105ZM393,105L393,100L386,100L386,105L393,105ZM403,105L403,100L396,100L396,105L403,105ZM413,105L413,100L406,100L406,105L413,105ZM416,105L423,105L423,100L416,100L416,105ZM506,100L506,105L513,105L513,100L506,100ZM433,105L433,100L426,100L426,105L433,105ZM443,105L443,100L436,100L436,105L443,105ZM453,105L453,100L446,100L446,105L453,105ZM456,105L463,105L463,100L456,100L456,105ZM466,100L466,105L473,105L473,100L466,100ZM476,100L476,105L483,105L483,100L476,100ZM486,100L486,105L493,105L493,100L486,100ZM496,100L496,105L503,105L503,100L496,100Z" style="fill:rgb(204,0,0);"/>
        </g>
        <rect x="14.202" y="86.738" width="510.027" height="5.325" style="fill:rgb(204,0,0);"/>
        <rect x="14.202" y="86.738" width="3.772" height="66.075" style="fill:rgb(204,0,0);"/>
        <rect x="520.202" y="86.738" width="3.772" height="66.075" style="fill:rgb(204,0,0);"/>
        <rect x="14.202" y="149.738" width="510.027" height="5.325" style="fill:rgb(204,0,0);"/>
        <g transform="matrix(4.2545,0,0,4.13271,-756.83,-371.446)">
            <clipPath id="_clip1">
                <ellipse cx="238.186" cy="120.499" rx="29.975" ry="28.888"/>
            </clipPath>
            <g clip-path="url(#_clip1)">
                <g transform="matrix(0.367678,0,0,0.367678,-58.7479,37.7298)">
                    <circle cx="810.138" cy="231.67" r="103.521" style="fill:rgb(235,235,235);"/>
                </g>
                <g transform="matrix(0.792225,0,0,1,115.598,0.78631)">
                    <path d="M416,144L416,150L413,150L413,144L406,144L406,150L403,150L403,144L396,144L396,150L393,150L393,144L386,144L386,150L383,150L383,144L376,144L376,150L373,150L373,144L366,144L366,150L363,150L363,144L356,144L356,150L353,150L353,144L346,144L346,150L343,150L343,144L336,144L336,150L333,150L333,144L326,144L326,150L323,150L323,144L316,144L316,150L313,150L313,144L306,144L306,150L303,150L303,144L296,144L296,150L293,150L293,144L286,144L286,150L283,150L283,144L276,144L276,150L273,150L273,144L266,144L266,150L263,150L263,144L256,144L256,150L253,150L253,144L246,144L246,150L243,150L243,144L236,144L236,150L233,150L233,144L226,144L226,150L223,150L223,144L216,144L216,150L213,150L213,144L206,144L206,150L203,150L203,144L196,144L196,150L193,150L193,144L186,144L186,150L183,150L183,144L176,144L176,150L173,150L173,144L166,144L166,150L163,150L163,144L156,144L156,150L153,150L153,144L146,144L146,150L143,150L143,144L136,144L136,150L133,150L133,144L126,144L126,150L123,150L123,144L116,144L116,150L113,150L113,144L106,144L106,150L103,150L103,144L96,144L96,150L93,150L93,144L86,144L86,150L83,150L83,144L76,144L76,150L73,150L73,144L66,144L66,150L63,150L63,144L56,144L56,150L53,150L53,144L46,144L46,150L43,150L43,144L36,144L36,150L33,150L33,144L26,144L26,150L23,150L23,144L16,144L16,140L23,140L23,135L16,135L16,131L23,131L23,127L16,127L16,123L23,123L23,118L16,118L16,114L23,114L23,109L16,109L16,105L23,105L23,100L16,100L16,96L23,96L23,91L26,91L26,96L33,96L33,91L36,91L36,96L43,96L43,91L46,91L46,96L53,96L53,91L56,91L56,96L63,96L63,91L66,91L66,96L73,96L73,91L76,91L76,96L83,96L83,91L86,91L86,96L93,96L93,91L96,91L96,96L103,96L103,91L106,91L106,96L113,96L113,91L116,91L116,96L123,96L123,91L126,91L126,96L133,96L133,91L136,91L136,96L143,96L143,91L146,91L146,96L153,96L153,91L156,91L156,96L163,96L163,91L166,91L166,96L173,96L173,91L176,91L176,96L183,96L183,91L186,91L186,96L193,96L193,91L196,91L196,96L203,96L203,91L206,91L206,96L213,96L213,91L216,91L216,96L223,96L223,91L226,91L226,96L233,96L233,91L236,91L236,96L243,96L243,91L246,91L246,96L253,96L253,91L256,91L256,96L263,96L263,91L266,91L266,96L273,96L273,91L276,91L276,96L283,96L283,91L286,91L286,96L293,96L293,91L296,91L296,96L303,96L303,91L306,91L306,96L313,96L313,91L316,91L316,96L323,96L323,91L326,91L326,96L333,96L333,91L336,91L336,96L343,96L343,91L346,91L346,96L353,96L353,91L356,91L356,96L363,96L363,91L366,91L366,96L373,96L373,91L376,91L376,96L383,96L383,91L386,91L386,96L393,96L393,91L396,91L396,96L403,96L403,91L406,91L406,96L413,96L413,91L416,91L416,96L423,96L423,91L426,91L426,96L433,96L433,91L436,91L436,96L443,96L443,91L446,91L446,96L453,96L453,91L456,91L456,96L463,96L463,91L466,91L466,96L473,96L473,91L476,91L476,96L483,96L483,91L486,91L486,96L493,96L493,91L496,91L496,96L503,96L503,91L506,91L506,96L513,96L513,91L516,91L516,96L524,96L524,100L516,100L516,105L524,105L524,109L516,109L516,114L524,114L524,118L516,118L516,123L524,123L524,127L516,127L516,131L524,131L524,135L516,135L516,140L524,140L524,144L516,144L516,150L513,150L513,144L506,144L506,150L503,150L503,144L496,144L496,150L493,150L493,144L486,144L486,150L483,150L483,144L476,144L476,150L473,150L473,144L466,144L466,150L463,150L463,144L456,144L456,150L453,150L453,144L446,144L446,150L443,150L443,144L436,144L436,150L433,150L433,144L426,144L426,150L423,150L423,144L416,144ZM33,140L33,135L26,135L26,140L33,140ZM43,140L43,135L36,135L36,140L43,140ZM53,140L53,135L46,135L46,140L53,140ZM63,140L63,135L56,135L56,140L63,140ZM73,140L73,135L66,135L66,140L73,140ZM83,140L83,135L76,135L76,140L83,140ZM93,140L93,135L86,135L86,140L93,140ZM103,140L103,135L96,135L96,140L103,140ZM113,140L113,135L106,135L106,140L113,140ZM123,140L123,135L116,135L116,140L123,140ZM133,140L133,135L126,135L126,140L133,140ZM143,140L143,135L136,135L136,140L143,140ZM153,140L153,135L146,135L146,140L153,140ZM163,140L163,135L156,135L156,140L163,140ZM173,140L173,135L166,135L166,140L173,140ZM183,140L183,135L176,135L176,140L183,140ZM193,140L193,135L186,135L186,140L193,140ZM203,140L203,135L196,135L196,140L203,140ZM213,140L213,135L206,135L206,140L213,140ZM223,140L223,135L216,135L216,140L223,140ZM233,140L233,135L226,135L226,140L233,140ZM243,140L243,135L236,135L236,140L243,140ZM253,140L253,135L246,135L246,140L253,140ZM263,140L263,135L256,135L256,140L263,140ZM273,140L273,135L266,135L266,140L273,140ZM283,140L283,135L276,135L276,140L283,140ZM293,140L293,135L286,135L286,140L293,140ZM303,140L303,135L296,135L296,140L303,140ZM313,140L313,135L306,135L306,140L313,140ZM323,140L323,135L316,135L316,140L323,140ZM333,140L333,135L326,135L326,140L333,140ZM343,140L343,135L336,135L336,140L343,140ZM353,140L353,135L346,135L346,140L353,140ZM363,140L363,135L356,135L356,140L363,140ZM373,140L373,135L366,135L366,140L373,140ZM383,140L383,135L376,135L376,140L383,140ZM393,140L393,135L386,135L386,140L393,140ZM403,140L403,135L396,135L396,140L403,140ZM413,140L413,135L406,135L406,140L413,140ZM416,140L423,140L423,135L416,135L416,140ZM433,140L433,135L426,135L426,140L433,140ZM443,140L443,135L436,135L436,140L443,140ZM453,140L453,135L446,135L446,140L453,140ZM456,140L463,140L463,135L456,135L456,140ZM506,135L506,140L513,140L513,135L506,135ZM496,135L496,140L503,140L503,135L496,135ZM486,135L486,140L493,140L493,135L486,135ZM476,135L476,140L483,140L483,135L476,135ZM466,135L466,140L473,140L473,135L466,135ZM33,131L33,127L26,127L26,131L33,131ZM43,131L43,127L36,127L36,131L43,131ZM53,131L53,127L46,127L46,131L53,131ZM63,131L63,127L56,127L56,131L63,131ZM73,131L73,127L66,127L66,131L73,131ZM83,131L83,127L76,127L76,131L83,131ZM93,131L93,127L86,127L86,131L93,131ZM103,131L103,127L96,127L96,131L103,131ZM113,131L113,127L106,127L106,131L113,131ZM123,131L123,127L116,127L116,131L123,131ZM133,131L133,127L126,127L126,131L133,131ZM143,131L143,127L136,127L136,131L143,131ZM153,131L153,127L146,127L146,131L153,131ZM163,131L163,127L156,127L156,131L163,131ZM173,131L173,127L166,127L166,131L173,131ZM183,131L183,127L176,127L176,131L183,131ZM193,131L193,127L186,127L186,131L193,131ZM203,131L203,127L196,127L196,131L203,131ZM213,131L213,127L206,127L206,131L213,131ZM223,131L223,127L216,127L216,131L223,131ZM233,131L233,127L226,127L226,131L233,131ZM243,131L243,127L236,127L236,131L243,131ZM253,131L253,127L246,127L246,131L253,131ZM263,131L263,127L256,127L256,131L263,131ZM273,131L273,127L266,127L266,131L273,131ZM283,131L283,127L276,127L276,131L283,131ZM293,131L293,127L286,127L286,131L293,131ZM303,131L303,127L296,127L296,131L303,131ZM313,131L313,127L306,127L306,131L313,131ZM323,131L323,127L316,127L316,131L323,131ZM333,131L333,127L326,127L326,131L333,131ZM343,131L343,127L336,127L336,131L343,131ZM353,131L353,127L346,127L346,131L353,131ZM363,131L363,127L356,127L356,131L363,131ZM373,131L373,127L366,127L366,131L373,131ZM383,131L383,127L376,127L376,131L383,131ZM393,131L393,127L386,127L386,131L393,131ZM403,131L403,127L396,127L396,131L403,131ZM413,131L413,127L406,127L406,131L413,131ZM416,131L423,131L423,127L416,127L416,131ZM433,131L433,127L426,127L426,131L433,131ZM506,127L506,131L513,131L513,127L506,127ZM496,127L496,131L503,131L503,127L496,127ZM486,127L486,131L493,131L493,127L486,127ZM476,127L476,131L483,131L483,127L476,127ZM466,127L466,131L473,131L473,127L466,127ZM456,131L463,131L463,127L456,127L456,131ZM453,131L453,127L446,127L446,131L453,131ZM443,131L443,127L436,127L436,131L443,131ZM33,123L33,118L26,118L26,123L33,123ZM43,123L43,118L36,118L36,123L43,123ZM53,123L53,118L46,118L46,123L53,123ZM63,123L63,118L56,118L56,123L63,123ZM73,123L73,118L66,118L66,123L73,123ZM83,123L83,118L76,118L76,123L83,123ZM93,123L93,118L86,118L86,123L93,123ZM103,123L103,118L96,118L96,123L103,123ZM113,123L113,118L106,118L106,123L113,123ZM123,123L123,118L116,118L116,123L123,123ZM133,123L133,118L126,118L126,123L133,123ZM143,123L143,118L136,118L136,123L143,123ZM153,123L153,118L146,118L146,123L153,123ZM163,123L163,118L156,118L156,123L163,123ZM173,123L173,118L166,118L166,123L173,123ZM183,123L183,118L176,118L176,123L183,123ZM193,123L193,118L186,118L186,123L193,123ZM203,123L203,118L196,118L196,123L203,123ZM213,123L213,118L206,118L206,123L213,123ZM223,123L223,118L216,118L216,123L223,123ZM233,123L233,118L226,118L226,123L233,123ZM243,123L243,118L236,118L236,123L243,123ZM253,123L253,118L246,118L246,123L253,123ZM263,123L263,118L256,118L256,123L263,123ZM273,123L273,118L266,118L266,123L273,123ZM283,123L283,118L276,118L276,123L283,123ZM293,123L293,118L286,118L286,123L293,123ZM303,123L303,118L296,118L296,123L303,123ZM313,123L313,118L306,118L306,123L313,123ZM323,123L323,118L316,118L316,123L323,123ZM333,123L333,118L326,118L326,123L333,123ZM343,123L343,118L336,118L336,123L343,123ZM353,123L353,118L346,118L346,123L353,123ZM363,123L363,118L356,118L356,123L363,123ZM373,123L373,118L366,118L366,123L373,123ZM383,123L383,118L376,118L376,123L383,123ZM393,123L393,118L386,118L386,123L393,123ZM403,123L403,118L396,118L396,123L403,123ZM413,123L413,118L406,118L406,123L413,123ZM416,123L423,123L423,118L416,118L416,123ZM506,118L506,123L513,123L513,118L506,118ZM433,123L433,118L426,118L426,123L433,123ZM443,123L443,118L436,118L436,123L443,123ZM453,123L453,118L446,118L446,123L453,123ZM456,123L463,123L463,118L456,118L456,123ZM466,118L466,123L473,123L473,118L466,118ZM476,118L476,123L483,123L483,118L476,118ZM486,118L486,123L493,123L493,118L486,118ZM496,118L496,123L503,123L503,118L496,118ZM33,114L33,109L26,109L26,114L33,114ZM43,114L43,109L36,109L36,114L43,114ZM53,114L53,109L46,109L46,114L53,114ZM63,114L63,109L56,109L56,114L63,114ZM73,114L73,109L66,109L66,114L73,114ZM83,114L83,109L76,109L76,114L83,114ZM93,114L93,109L86,109L86,114L93,114ZM103,114L103,109L96,109L96,114L103,114ZM113,114L113,109L106,109L106,114L113,114ZM123,114L123,109L116,109L116,114L123,114ZM133,114L133,109L126,109L126,114L133,114ZM143,114L143,109L136,109L136,114L143,114ZM153,114L153,109L146,109L146,114L153,114ZM163,114L163,109L156,109L156,114L163,114ZM173,114L173,109L166,109L166,114L173,114ZM183,114L183,109L176,109L176,114L183,114ZM193,114L193,109L186,109L186,114L193,114ZM203,114L203,109L196,109L196,114L203,114ZM213,114L213,109L206,109L206,114L213,114ZM223,114L223,109L216,109L216,114L223,114ZM233,114L233,109L226,109L226,114L233,114ZM243,114L243,109L236,109L236,114L243,114ZM253,114L253,109L246,109L246,114L253,114ZM263,114L263,109L256,109L256,114L263,114ZM273,114L273,109L266,109L266,114L273,114ZM283,114L283,109L276,109L276,114L283,114ZM293,114L293,109L286,109L286,114L293,114ZM303,114L303,109L296,109L296,114L303,114ZM313,114L313,109L306,109L306,114L313,114ZM323,114L323,109L316,109L316,114L323,114ZM333,114L333,109L326,109L326,114L333,114ZM343,114L343,109L336,109L336,114L343,114ZM353,114L353,109L346,109L346,114L353,114ZM363,114L363,109L356,109L356,114L363,114ZM373,114L373,109L366,109L366,114L373,114ZM383,114L383,109L376,109L376,114L383,114ZM393,114L393,109L386,109L386,114L393,114ZM403,114L403,109L396,109L396,114L403,114ZM413,114L413,109L406,109L406,114L413,114ZM416,114L423,114L423,109L416,109L416,114ZM506,109L506,114L513,114L513,109L506,109ZM496,109L496,114L503,114L503,109L496,109ZM486,109L486,114L493,114L493,109L486,109ZM476,109L476,114L483,114L483,109L476,109ZM466,109L466,114L473,114L473,109L466,109ZM456,114L463,114L463,109L456,109L456,114ZM433,114L433,109L426,109L426,114L433,114ZM443,114L443,109L436,109L436,114L443,114ZM453,114L453,109L446,109L446,114L453,114ZM33,105L33,100L26,100L26,105L33,105ZM43,105L43,100L36,100L36,105L43,105ZM53,105L53,100L46,100L46,105L53,105ZM63,105L63,100L56,100L56,105L63,105ZM73,105L73,100L66,100L66,105L73,105ZM83,105L83,100L76,100L76,105L83,105ZM93,105L93,100L86,100L86,105L93,105ZM103,105L103,100L96,100L96,105L103,105ZM113,105L113,100L106,100L106,105L113,105ZM123,105L123,100L116,100L116,105L123,105ZM133,105L133,100L126,100L126,105L133,105ZM143,105L143,100L136,100L136,105L143,105ZM153,105L153,100L146,100L146,105L153,105ZM163,105L163,100L156,100L156,105L163,105ZM173,105L173,100L166,100L166,105L173,105ZM183,105L183,100L176,100L176,105L183,105ZM193,105L193,100L186,100L186,105L193,105ZM203,105L203,100L196,100L196,105L203,105ZM213,105L213,100L206,100L206,105L213,105ZM223,105L223,100L216,100L216,105L223,105ZM233,105L233,100L226,100L226,105L233,105ZM243,105L243,100L236,100L236,105L243,105ZM253,105L253,100L246,100L246,105L253,105ZM263,105L263,100L256,100L256,105L263,105ZM273,105L273,100L266,100L266,105L273,105ZM283,105L283,100L276,100L276,105L283,105ZM293,105L293,100L286,100L286,105L293,105ZM303,105L303,100L296,100L296,105L303,105ZM313,105L313,100L306,100L306,105L313,105ZM323,105L323,100L316,100L316,105L323,105ZM333,105L333,100L326,100L326,105L333,105ZM343,105L343,100L336,100L336,105L343,105ZM353,105L353,100L346,100L346,105L353,105ZM363,105L363,100L356,100L356,105L363,105ZM373,105L373,100L366,100L366,105L373,105ZM383,105L383,100L376,100L376,105L383,105ZM393,105L393,100L386,100L386,105L393,105ZM403,105L403,100L396,100L396,105L403,105ZM413,105L413,100L406,100L406,105L413,105ZM416,105L423,105L423,100L416,100L416,105ZM506,100L506,105L513,105L513,100L506,100ZM433,105L433,100L426,100L426,105L433,105ZM443,105L443,100L436,100L436,105L443,105ZM453,105L453,100L446,100L446,105L453,105ZM456,105L463,105L463,100L456,100L456,105ZM466,100L466,105L473,105L473,100L466,100ZM476,100L476,105L483,105L483,100L476,100ZM486,100L486,105L493,105L493,100L486,100ZM496,100L496,105L503,105L503,100L496,100Z" style="fill:rgb(204,0,0);"/>
                </g>
                <g transform="matrix(0.28231,0,0,0.268648,9.57667,58.3577)">
                    <circle cx="810.138" cy="231.67" r="103.521" style="fill:none;stroke:black;stroke-width:9.21px;"/>
                </g>
            </g>
        </g>
    </g>
</svg>
