<?xml version="1.0" encoding="UTF-8" standalone="no"?><!DOCTYPE svg PUBLIC "-//W3C//DTD SVG 1.1//EN" "http://www.w3.org/Graphics/SVG/1.1/DTD/svg11.dtd"><svg width="100%" height="100%" viewBox="0 0 539 539" version="1.1" xmlns="http://www.w3.org/2000/svg" xmlns:xlink="http://www.w3.org/1999/xlink" xml:space="preserve" xmlns:serif="http://www.serif.com/" style="fill-rule:evenodd;clip-rule:evenodd;stroke-linejoin:round;stroke-miterlimit:2;"><g id="Warstwa_1_1_"><rect x="156.746" y="15.272" width="211.053" height="10.695" style="fill:#333;"/><rect x="156.746" y="35.272" width="211.053" height="10.695" style="fill:#333;"/><rect x="156.746" y="55.272" width="211.053" height="10.695" style="fill:#333;"/><rect x="156.746" y="75.272" width="211.053" height="10.695" style="fill:#333;"/><rect x="156.746" y="95.272" width="211.053" height="10.695" style="fill:#333;"/><rect x="156.746" y="115.272" width="211.053" height="10.695" style="fill:#333;"/><rect x="156.746" y="135.272" width="211.053" height="10.695" style="fill:#333;"/><rect x="156.746" y="155.272" width="211.053" height="10.695" style="fill:#333;"/><rect x="156.746" y="175.272" width="211.053" height="10.695" style="fill:#333;"/><rect x="156.746" y="195.272" width="211.053" height="10.695" style="fill:#333;"/><rect x="156.746" y="215.272" width="211.053" height="10.695" style="fill:#333;"/><rect x="156.746" y="235.272" width="211.053" height="10.695" style="fill:#333;"/><rect x="156.746" y="255.272" width="211.053" height="10.695" style="fill:#333;"/><rect x="156.746" y="275.272" width="211.053" height="10.695" style="fill:#333;"/><rect x="156.746" y="295.272" width="211.053" height="10.695" style="fill:#333;"/><rect x="156.746" y="315.272" width="211.053" height="10.695" style="fill:#333;"/><rect x="156.746" y="335.272" width="211.053" height="10.695" style="fill:#333;"/><rect x="156.746" y="355.272" width="211.053" height="10.695" style="fill:#333;"/><rect x="156.746" y="375.272" width="211.053" height="10.695" style="fill:#333;"/><rect x="156.746" y="395.272" width="211.053" height="10.695" style="fill:#333;"/><rect x="156.746" y="415.272" width="211.053" height="10.695" style="fill:#333;"/><rect x="156.746" y="435.272" width="211.053" height="10.695" style="fill:#333;"/><rect x="156.746" y="455.272" width="211.053" height="10.695" style="fill:#333;"/><rect x="156.746" y="475.272" width="211.053" height="10.695" style="fill:#333;"/><rect x="156.746" y="495.272" width="211.053" height="10.695" style="fill:#333;"/><rect x="156.746" y="515.272" width="211.053" height="10.695" style="fill:#333;"/></g></svg>